<svg width="20" height="16" viewBox="0 0 20 16" fill="none" xmlns="http://www.w3.org/2000/svg">
<path d="M10 9L20 5.5V4.5L10 1L0 4.5V5.5L2.87812 6.50625L1.6625 7.63125L1.5 7.78125V8V10C1.425 10.3719 1.34063 10.7344 1.24688 11.0813C0.98125 12.0844 0.6625 12.9531 0.4125 13.5625C0.175 14.15 0 14.5 0 14.5L1.00937 14.7031L2.5 15C3.28437 13.1687 2.975 11.8844 2.5 11.075V8.21875L3.94688 6.88125L10 9ZM1.6 5L10 2.05938L18.4 5L10 7.94063L5.1625 6.24687L10.175 4.36875L9.825 3.43125L3.825 5.68125L3.73438 5.71562L3.70937 5.7375L1.6 5ZM4.4875 8.13125L4 12.75C4 13.8531 6.6875 15 10 15C13.3125 15 16 13.8531 16 12.75L15.5125 8.13125L14.5437 8.47188L14.9875 12.7C14.9656 12.725 14.9312 12.7656 14.8719 12.8156C14.6844 12.9781 14.3562 13.175 13.875 13.3625C12.925 13.7312 11.5531 14 10 14C8.44687 14 7.075 13.7312 6.12187 13.3562C5.64062 13.1687 5.31563 12.9719 5.125 12.8094C5.06563 12.7594 5.03125 12.7219 5.00938 12.6938L5.45625 8.46875L4.4875 8.12813V8.13125ZM15.0156 12.6562C15.0156 12.6562 15.0156 12.6562 15.0125 12.6594C15.0125 12.6562 15.0156 12.6562 15.0156 12.6562ZM4.98438 12.6562C4.98438 12.6562 4.98438 12.6562 4.9875 12.6594C4.9875 12.6562 4.98438 12.6562 4.98438 12.6562ZM1.84687 13.85L1.4125 13.7625C1.44063 13.6937 1.46875 13.6219 1.49688 13.5469C1.63125 13.1938 1.78125 12.7844 1.925 12.3313C2.00625 12.725 2.0125 13.2281 1.84687 13.85Z" fill="black"/>
</svg>
