<svg width="22" height="19" viewBox="0 0 22 19" fill="none" xmlns="http://www.w3.org/2000/svg">
<path d="M1.71875 0.8125H3.78125C4.33984 0.8125 4.8125 1.28516 4.8125 1.84375V3.90625C4.8125 4.50781 4.33984 4.9375 3.78125 4.9375H1.71875C1.11719 4.9375 0.6875 4.50781 0.6875 3.90625V1.84375C0.6875 1.28516 1.11719 0.8125 1.71875 0.8125ZM7.90625 1.84375H20.9688C21.5273 1.84375 22 2.31641 22 2.875C22 3.47656 21.5273 3.90625 20.9688 3.90625H7.90625C7.30469 3.90625 6.875 3.47656 6.875 2.875C6.875 2.31641 7.30469 1.84375 7.90625 1.84375ZM7.90625 8.71875H20.9688C21.5273 8.71875 22 9.19141 22 9.75C22 10.3516 21.5273 10.7812 20.9688 10.7812H7.90625C7.30469 10.7812 6.875 10.3516 6.875 9.75C6.875 9.19141 7.30469 8.71875 7.90625 8.71875ZM7.90625 15.5938H20.9688C21.5273 15.5938 22 16.0664 22 16.625C22 17.2266 21.5273 17.6562 20.9688 17.6562H7.90625C7.30469 17.6562 6.875 17.2266 6.875 16.625C6.875 16.0664 7.30469 15.5938 7.90625 15.5938ZM0.6875 8.71875C0.6875 8.16016 1.11719 7.6875 1.71875 7.6875H3.78125C4.33984 7.6875 4.8125 8.16016 4.8125 8.71875V10.7812C4.8125 11.3828 4.33984 11.8125 3.78125 11.8125H1.71875C1.11719 11.8125 0.6875 11.3828 0.6875 10.7812V8.71875ZM1.71875 14.5625H3.78125C4.33984 14.5625 4.8125 15.0352 4.8125 15.5938V17.6562C4.8125 18.2578 4.33984 18.6875 3.78125 18.6875H1.71875C1.11719 18.6875 0.6875 18.2578 0.6875 17.6562V15.5938C0.6875 15.0352 1.11719 14.5625 1.71875 14.5625Z" fill="url(#paint0_linear_269_2511)"/>
<defs>
<linearGradient id="paint0_linear_269_2511" x1="-3.94044e-09" y1="10.2015" x2="22.0016" y2="10.0796" gradientUnits="userSpaceOnUse">
<stop stop-color="#E11D48"/>
<stop offset="0.5" stop-color="#CC1D6B"/>
<stop offset="0.75" stop-color="#B81C8B"/>
<stop offset="1" stop-color="#A51CA9"/>
</linearGradient>
</defs>
</svg>
