<svg width="12" height="16" viewBox="0 0 12 16" fill="none" xmlns="http://www.w3.org/2000/svg">
<g clip-path="url(#clip0_236_4211)">
<path d="M11 6C11 3.2375 8.7625 1 6 1C3.2375 1 1 3.2375 1 6C1 6.4875 1.16875 7.15625 1.51875 7.98125C1.85938 8.79062 2.3375 9.66875 2.88125 10.5469C3.94687 12.275 5.20625 13.9281 6.00313 14.9219C6.79688 13.9281 8.05937 12.275 9.125 10.5469C9.66562 9.66875 10.1469 8.7875 10.4875 7.98125C10.8313 7.15625 11 6.4875 11 6ZM12 6C12 8.73125 8.34375 13.5938 6.74062 15.6C6.35625 16.0781 5.64375 16.0781 5.25938 15.6C3.65625 13.5938 0 8.73125 0 6C0 2.6875 2.6875 0 6 0C9.3125 0 12 2.6875 12 6ZM4.5 6C4.5 6.39782 4.65804 6.77936 4.93934 7.06066C5.22064 7.34196 5.60218 7.5 6 7.5C6.39782 7.5 6.77936 7.34196 7.06066 7.06066C7.34196 6.77936 7.5 6.39782 7.5 6C7.5 5.60218 7.34196 5.22064 7.06066 4.93934C6.77936 4.65804 6.39782 4.5 6 4.5C5.60218 4.5 5.22064 4.65804 4.93934 4.93934C4.65804 5.22064 4.5 5.60218 4.5 6ZM6 8.5C5.33696 8.5 4.70107 8.23661 4.23223 7.76777C3.76339 7.29893 3.5 6.66304 3.5 6C3.5 5.33696 3.76339 4.70107 4.23223 4.23223C4.70107 3.76339 5.33696 3.5 6 3.5C6.66304 3.5 7.29893 3.76339 7.76777 4.23223C8.23661 4.70107 8.5 5.33696 8.5 6C8.5 6.66304 8.23661 7.29893 7.76777 7.76777C7.29893 8.23661 6.66304 8.5 6 8.5Z" fill="black"/>
</g>
<defs>
<clipPath id="clip0_236_4211">
<rect width="12" height="16" fill="white"/>
</clipPath>
</defs>
</svg>
